<?xml version="1.0" encoding="UTF-8" standalone="no"?>
<svg
   width="194.28508pt"
   height="160.33141pt"
   viewBox="0 0 194.28508 160.33141"
   version="1.1"
   id="svg203"
   sodipodi:docname="dropout_2.svg"
   inkscape:version="1.4 (e7c3feb100, 2024-10-09)"
   xmlns:inkscape="http://www.inkscape.org/namespaces/inkscape"
   xmlns:sodipodi="http://sodipodi.sourceforge.net/DTD/sodipodi-0.dtd"
   xmlns:xlink="http://www.w3.org/1999/xlink"
   xmlns="http://www.w3.org/2000/svg"
   xmlns:svg="http://www.w3.org/2000/svg">
  <sodipodi:namedview
     id="namedview203"
     pagecolor="#ffffff"
     bordercolor="#666666"
     borderopacity="1.0"
     inkscape:showpageshadow="2"
     inkscape:pageopacity="0.0"
     inkscape:pagecheckerboard="0"
     inkscape:deskcolor="#d1d1d1"
     inkscape:document-units="pt"
     inkscape:zoom="1.6192833"
     inkscape:cx="183.1057"
     inkscape:cy="60.520602"
     inkscape:window-width="2560"
     inkscape:window-height="1403"
     inkscape:window-x="1600"
     inkscape:window-y="0"
     inkscape:window-maximized="1"
     inkscape:current-layer="surface1" />
  <defs
     id="defs22">
    <g
       id="g22">
      <symbol
         overflow="visible"
         id="glyph0-0">
        <path
           style="stroke:none"
           d=""
           id="path1" />
      </symbol>
      <symbol
         overflow="visible"
         id="glyph0-1">
        <path
           style="stroke:none"
           d="m 2.1875,-3.1875 c -0.125,-0.625 -0.234375,-0.78125 -0.453125,-0.78125 -0.21875,0 -0.515625,0.0625 -1.0625,0.265625 l -0.09375,0.03125 0.03125,0.140625 0.15625,-0.046875 c 0.171875,-0.046875 0.28125,-0.0625 0.34375,-0.0625 0.234375,0 0.296875,0.078125 0.421875,0.609375 l 0.25,1.125 -0.734375,1.046875 c -0.1875,0.265625 -0.359375,0.4375 -0.46875,0.4375 C 0.53125,-0.421875 0.4375,-0.453125 0.34375,-0.5 0.234375,-0.5625 0.140625,-0.609375 0.0625,-0.609375 c -0.171875,0 -0.3125,0.15625 -0.3125,0.328125 0,0.234375 0.171875,0.375 0.453125,0.375 0.28125,0 0.46875,-0.078125 0.859375,-0.609375 l 0.796875,-1.0625 0.25,1.0625 c 0.109375,0.453125 0.25,0.609375 0.53125,0.609375 0.34375,0 0.578125,-0.203125 1.109375,-1.015625 L 3.609375,-1.015625 C 3.53125,-0.921875 3.5,-0.859375 3.421875,-0.75 3.21875,-0.484375 3.109375,-0.390625 3,-0.390625 c -0.125,0 -0.203125,-0.125 -0.265625,-0.375 L 2.4375,-1.96875 C 2.390625,-2.1875 2.359375,-2.3125 2.359375,-2.375 2.765625,-3.0625 3.09375,-3.46875 3.25,-3.46875 c 0.21875,0 0.296875,0.15625 0.46875,0.15625 0.171875,0 0.296875,-0.140625 0.296875,-0.328125 0,-0.1875 -0.140625,-0.328125 -0.359375,-0.328125 -0.390625,0 -0.734375,0.328125 -1.359375,1.28125 z m 0,0"
           id="path2" />
      </symbol>
      <symbol
         overflow="visible"
         id="glyph0-2">
        <path
           style="stroke:none"
           d="m 4.1875,-1.0625 c -0.484375,0.609375 -0.59375,0.71875 -0.734375,0.71875 -0.09375,0 -0.15625,-0.0625 -0.15625,-0.15625 0,-0.109375 0.15625,-0.65625 0.296875,-1.125 0.28125,-0.84375 0.4375,-1.515625 0.4375,-1.734375 0,-0.34375 -0.171875,-0.609375 -0.578125,-0.609375 -0.5625,0 -1.265625,0.578125 -2.078125,1.90625 L 2.46875,-6.09375 2.40625,-6.140625 C 1.875,-6.03125 1.53125,-5.96875 0.984375,-5.90625 v 0.140625 h 0.25 c 0.15625,0 0.375,0.0625 0.375,0.21875 0,0.125 -0.046875,0.28125 -0.125,0.5625 L 0.171875,0 H 0.84375 c 0.359375,-1.390625 0.5,-1.703125 0.859375,-2.25 0.46875,-0.71875 1.046875,-1.265625 1.375,-1.265625 0.203125,0 0.25,0.09375 0.25,0.234375 0,0.03125 -0.03125,0.15625 -0.0625,0.296875 l -0.5,1.859375 C 2.65625,-0.6875 2.59375,-0.40625 2.59375,-0.296875 c 0,0.234375 0.15625,0.375 0.390625,0.375 0.46875,0 0.765625,-0.234375 1.3125,-1.015625 z m 0,0"
           id="path3" />
      </symbol>
      <symbol
         overflow="visible"
         id="glyph0-3">
        <path
           style="stroke:none"
           d="M 4.21875,-2.703125 C 4.21875,-3.5 3.671875,-3.96875 2.9375,-3.96875 c -0.359375,0 -0.71875,0.078125 -1.078125,0.265625 C 0.921875,-3.1875 0.25,-2.15625 0.25,-1.15625 c 0,0.78125 0.46875,1.25 1.3125,1.25 0.59375,0 1.171875,-0.21875 1.703125,-0.734375 0.59375,-0.59375 0.953125,-1.390625 0.953125,-2.0625 z M 3.453125,-2.9375 c 0,0.6875 -0.25,1.53125 -0.65625,2.09375 -0.359375,0.5 -0.703125,0.75 -1.09375,0.75 C 1.28125,-0.09375 1,-0.375 1,-0.90625 1,-1.625 1.25,-2.328125 1.671875,-2.96875 2.03125,-3.5 2.421875,-3.78125 2.8125,-3.78125 c 0.390625,0 0.640625,0.296875 0.640625,0.84375 z m 0,0"
           id="path4" />
      </symbol>
      <symbol
         overflow="visible"
         id="glyph1-0">
        <path
           style="stroke:none"
           d=""
           id="path5" />
      </symbol>
      <symbol
         overflow="visible"
         id="glyph1-1">
        <path
           style="stroke:none"
           d="m 2.359375,0 v -0.09375 c -0.453125,0 -0.5625,-0.109375 -0.5625,-0.359375 V -4.03125 l -0.0625,-0.03125 -1.0625,0.546875 v 0.09375 l 0.15625,-0.0625 C 0.9375,-3.53125 1.03125,-3.5625 1.09375,-3.5625 c 0.125,0 0.1875,0.09375 0.1875,0.296875 V -0.5625 c 0,0.328125 -0.125,0.453125 -0.578125,0.46875 V 0 Z m 0,0"
           id="path6" />
      </symbol>
      <symbol
         overflow="visible"
         id="glyph1-2">
        <path
           style="stroke:none"
           d="M 2.84375,-0.828125 2.765625,-0.859375 C 2.5625,-0.515625 2.4375,-0.453125 2.1875,-0.453125 H 0.78125 l 0.984375,-1.0625 C 2.296875,-2.078125 2.53125,-2.53125 2.53125,-3 c 0,-0.59375 -0.421875,-1.0625 -1.109375,-1.0625 -0.734375,0 -1.109375,0.5 -1.234375,1.203125 l 0.125,0.03125 c 0.234375,-0.59375 0.4375,-0.78125 0.875,-0.78125 0.515625,0 0.828125,0.296875 0.828125,0.84375 0,0.515625 -0.203125,0.96875 -0.78125,1.5625 l -1.0625,1.125 V 0 h 2.34375 z m 0,0"
           id="path7" />
      </symbol>
      <symbol
         overflow="visible"
         id="glyph1-3">
        <path
           style="stroke:none"
           d="m 0.359375,-3.0625 c 0.25,-0.4375 0.53125,-0.640625 0.90625,-0.640625 0.390625,0 0.640625,0.21875 0.640625,0.625 0,0.359375 -0.1875,0.625 -0.484375,0.796875 -0.125,0.078125 -0.28125,0.140625 -0.5,0.21875 v 0.078125 c 0.34375,0 0.46875,0.015625 0.609375,0.0625 0.40625,0.125 0.625,0.421875 0.625,0.875 0,0.5 -0.34375,0.921875 -0.78125,0.921875 -0.171875,0 -0.296875,-0.03125 -0.515625,-0.1875 -0.171875,-0.125 -0.265625,-0.15625 -0.375,-0.15625 -0.125,0 -0.234375,0.078125 -0.234375,0.203125 0,0.21875 0.234375,0.34375 0.671875,0.34375 0.53125,0 1.09375,-0.171875 1.390625,-0.546875 C 2.484375,-0.703125 2.59375,-1 2.59375,-1.3125 c 0,-0.3125 -0.109375,-0.59375 -0.265625,-0.78125 -0.125,-0.125 -0.234375,-0.203125 -0.5,-0.3125 C 2.21875,-2.640625 2.375,-2.953125 2.375,-3.234375 2.375,-3.71875 2,-4.0625 1.453125,-4.0625 c -0.625,0 -1.015625,0.40625 -1.1875,0.984375 z m 0,0"
           id="path8" />
      </symbol>
      <symbol
         overflow="visible"
         id="glyph1-4">
        <path
           style="stroke:none"
           d="m 2.84375,-1 v -0.390625 h -0.625 V -4.0625 H 1.953125 l -1.875,2.671875 V -1 H 1.75 V 0 H 2.21875 V -1 Z M 1.75,-1.390625 H 0.3125 L 1.75,-3.4375 Z m 0,0"
           id="path9" />
      </symbol>
      <symbol
         overflow="visible"
         id="glyph1-5">
        <path
           style="stroke:none"
           d="M 2.625,-4.09375 2.578125,-4.125 C 2.484375,-4 2.421875,-3.96875 2.28125,-3.96875 H 1.046875 l -0.65625,1.421875 c 0,0 0,0.015625 0,0.03125 0,0.03125 0.015625,0.046875 0.0625,0.046875 0.578125,0 1,0.1875 1.28125,0.421875 C 2,-1.84375 2.140625,-1.53125 2.140625,-1.15625 c 0,0.515625 -0.390625,1.015625 -0.8125,1.015625 -0.125,0 -0.265625,-0.046875 -0.421875,-0.1875 -0.203125,-0.15625 -0.3125,-0.1875 -0.453125,-0.1875 -0.171875,0 -0.265625,0.078125 -0.265625,0.234375 0,0.21875 0.3125,0.359375 0.765625,0.359375 C 1.359375,0.078125 1.6875,0 1.96875,-0.203125 2.375,-0.515625 2.5625,-0.875 2.5625,-1.453125 2.5625,-1.78125 2.5,-2 2.34375,-2.21875 2,-2.6875 1.703125,-2.828125 0.84375,-2.984375 L 1.09375,-3.5 H 2.25 c 0.09375,0 0.140625,-0.03125 0.15625,-0.078125 z m 0,0"
           id="path10" />
      </symbol>
      <symbol
         overflow="visible"
         id="glyph2-0">
        <path
           style="stroke:none"
           d="m 1.125,0 v -5.625 h 4.5 V 0 Z m 0.140625,-0.140625 h 4.21875 v -5.34375 h -4.21875 z m 0,0"
           id="path11" />
      </symbol>
      <symbol
         overflow="visible"
         id="glyph2-1">
        <path
           style="stroke:none"
           d="m 0.65625,0 v -6.4375 h 2.421875 c 0.488281,0 0.878906,0.070312 1.171875,0.203125 0.300781,0.125 0.535156,0.324219 0.703125,0.59375 0.175781,0.273437 0.265625,0.554687 0.265625,0.84375 0,0.28125 -0.078125,0.542969 -0.234375,0.78125 -0.148437,0.242187 -0.371094,0.4375 -0.671875,0.59375 0.382812,0.117187 0.679688,0.308594 0.890625,0.578125 0.21875,0.273438 0.328125,0.59375 0.328125,0.96875 0,0.304688 -0.070312,0.585938 -0.203125,0.84375 -0.125,0.261719 -0.28125,0.464844 -0.46875,0.609375 -0.1875,0.136719 -0.421875,0.242187 -0.703125,0.3125 C 3.875,-0.0351562 3.523438,0 3.109375,0 Z M 1.515625,-3.734375 H 2.90625 c 0.375,0 0.644531,-0.023437 0.8125,-0.078125 C 3.9375,-3.875 4.097656,-3.976562 4.203125,-4.125 4.316406,-4.28125 4.375,-4.46875 4.375,-4.6875 4.375,-4.90625 4.320312,-5.09375 4.21875,-5.25 4.113281,-5.414062 3.96875,-5.53125 3.78125,-5.59375 3.59375,-5.65625 3.265625,-5.6875 2.796875,-5.6875 h -1.28125 z m 0,2.96875 h 1.59375 c 0.28125,0 0.476563,-0.007813 0.59375,-0.03125 0.1875,-0.03125 0.347656,-0.085937 0.484375,-0.171875 0.132812,-0.082031 0.242188,-0.203125 0.328125,-0.359375 0.082031,-0.15625 0.125,-0.335937 0.125,-0.546875 0,-0.238281 -0.0625,-0.445312 -0.1875,-0.625 C 4.328125,-2.675781 4.15625,-2.796875 3.9375,-2.859375 3.71875,-2.929688 3.40625,-2.96875 3,-2.96875 H 1.515625 Z m 0,0"
           id="path12" />
      </symbol>
      <symbol
         overflow="visible"
         id="glyph2-2">
        <path
           style="stroke:none"
           d="m 3.78125,-1.5 0.828125,0.09375 C 4.472656,-0.925781 4.226562,-0.550781 3.875,-0.28125 3.53125,-0.0195312 3.085938,0.109375 2.546875,0.109375 c -0.679687,0 -1.21875,-0.2070312 -1.625,-0.625 -0.398437,-0.425781 -0.59375,-1.019531 -0.59375,-1.78125 0,-0.78125 0.203125,-1.382813 0.609375,-1.8125 0.40625,-0.4375 0.929688,-0.65625 1.578125,-0.65625 0.625,0 1.128906,0.214844 1.515625,0.640625 0.394531,0.417969 0.59375,1.011719 0.59375,1.78125 0,0.054688 0,0.125 0,0.21875 H 1.140625 c 0.03125,0.511719 0.175781,0.902344 0.4375,1.171875 0.257813,0.273437 0.585937,0.40625 0.984375,0.40625 0.289062,0 0.535156,-0.070313 0.734375,-0.21875 C 3.503906,-0.921875 3.664062,-1.164062 3.78125,-1.5 Z M 1.1875,-2.78125 H 3.796875 C 3.765625,-3.175781 3.664062,-3.472656 3.5,-3.671875 3.25,-3.972656 2.921875,-4.125 2.515625,-4.125 2.148438,-4.125 1.84375,-4 1.59375,-3.75 1.351562,-3.507812 1.21875,-3.1875 1.1875,-2.78125 Z m 0,0"
           id="path13" />
      </symbol>
      <symbol
         overflow="visible"
         id="glyph2-3">
        <path
           style="stroke:none"
           d="M 0.78125,0 V -4.046875 H 0.078125 v -0.625 H 0.78125 V -5.15625 c 0,-0.320312 0.023438,-0.554688 0.078125,-0.703125 0.082031,-0.207031 0.21875,-0.375 0.40625,-0.5 0.195313,-0.125 0.46875,-0.1875 0.8125,-0.1875 0.21875,0 0.460937,0.027344 0.734375,0.078125 l -0.125,0.6875 C 2.53125,-5.8125 2.378906,-5.828125 2.234375,-5.828125 c -0.242187,0 -0.414063,0.054687 -0.515625,0.15625 C 1.613281,-5.566406 1.5625,-5.375 1.5625,-5.09375 v 0.421875 h 0.921875 v 0.625 H 1.5625 V 0 Z m 0,0"
           id="path14" />
      </symbol>
      <symbol
         overflow="visible"
         id="glyph2-4">
        <path
           style="stroke:none"
           d="m 0.296875,-2.328125 c 0,-0.863281 0.238281,-1.503906 0.71875,-1.921875 0.40625,-0.34375 0.894531,-0.515625 1.46875,-0.515625 0.644531,0 1.171875,0.210937 1.578125,0.625 0.40625,0.417969 0.609375,0.996094 0.609375,1.734375 0,0.605469 -0.09375,1.078125 -0.28125,1.421875 -0.179687,0.34375 -0.4375,0.617187 -0.78125,0.8125 -0.34375,0.1875 -0.71875,0.28125 -1.125,0.28125 -0.65625,0 -1.1875,-0.2070312 -1.59375,-0.625 -0.398437,-0.425781 -0.59375,-1.03125 -0.59375,-1.8125 z m 0.8125,0 c 0,0.59375 0.128906,1.042969 0.390625,1.34375 0.257812,0.292969 0.585938,0.4375 0.984375,0.4375 0.394531,0 0.722656,-0.144531 0.984375,-0.4375 0.257812,-0.300781 0.390625,-0.757813 0.390625,-1.375 0,-0.570313 -0.132813,-1.007813 -0.390625,-1.3125 C 3.207031,-3.972656 2.878906,-4.125 2.484375,-4.125 2.085938,-4.125 1.757812,-3.972656 1.5,-3.671875 1.238281,-3.378906 1.109375,-2.929688 1.109375,-2.328125 Z m 0,0"
           id="path15" />
      </symbol>
      <symbol
         overflow="visible"
         id="glyph2-5">
        <path
           style="stroke:none"
           d="m 0.578125,0 v -4.671875 h 0.71875 v 0.71875 c 0.175781,-0.332031 0.34375,-0.550781 0.5,-0.65625 0.15625,-0.101563 0.328125,-0.15625 0.515625,-0.15625 0.257812,0 0.53125,0.085937 0.8125,0.25 L 2.84375,-3.78125 c -0.1875,-0.113281 -0.382812,-0.171875 -0.578125,-0.171875 -0.167969,0 -0.324219,0.054687 -0.46875,0.15625 C 1.660156,-3.691406 1.5625,-3.546875 1.5,-3.359375 1.414062,-3.078125 1.375,-2.769531 1.375,-2.4375 V 0 Z m 0,0"
           id="path16" />
      </symbol>
      <symbol
         overflow="visible"
         id="glyph2-6">
        <path
           style="stroke:none"
           d=""
           id="path17" />
      </symbol>
      <symbol
         overflow="visible"
         id="glyph2-7">
        <path
           style="stroke:none"
           d="M 3.625,0 V -0.59375 C 3.320312,-0.125 2.882812,0.109375 2.3125,0.109375 c -0.367188,0 -0.703125,-0.10546875 -1.015625,-0.3125 C 0.984375,-0.410156 0.738281,-0.695312 0.5625,-1.0625 c -0.167969,-0.363281 -0.25,-0.785156 -0.25,-1.265625 0,-0.46875 0.078125,-0.890625 0.234375,-1.265625 0.15625,-0.382812 0.382813,-0.675781 0.6875,-0.875 0.3125,-0.195312 0.660156,-0.296875 1.046875,-0.296875 0.28125,0 0.53125,0.058594 0.75,0.171875 C 3.25,-4.476562 3.425781,-4.320312 3.5625,-4.125 V -6.4375 H 4.359375 V 0 Z m -2.5,-2.328125 c 0,0.59375 0.125,1.042969 0.375,1.34375 0.25,0.292969 0.546875,0.4375 0.890625,0.4375 0.34375,0 0.632813,-0.140625 0.875,-0.421875 0.25,-0.28125 0.375,-0.710938 0.375,-1.296875 0,-0.632813 -0.125,-1.101563 -0.375,-1.40625 C 3.015625,-3.972656 2.710938,-4.125 2.359375,-4.125 2.003906,-4.125 1.707031,-3.976562 1.46875,-3.6875 1.238281,-3.394531 1.125,-2.941406 1.125,-2.328125 Z m 0,0"
           id="path18" />
      </symbol>
      <symbol
         overflow="visible"
         id="glyph2-8">
        <path
           style="stroke:none"
           d="M 0.59375,1.78125 V -4.671875 H 1.3125 V -4.0625 c 0.164062,-0.238281 0.351562,-0.414062 0.5625,-0.53125 0.21875,-0.113281 0.484375,-0.171875 0.796875,-0.171875 0.394531,0 0.742187,0.105469 1.046875,0.3125 0.300781,0.199219 0.53125,0.484375 0.6875,0.859375 0.15625,0.375 0.234375,0.78125 0.234375,1.21875 0,0.480469 -0.089844,0.914062 -0.265625,1.296875 C 4.207031,-0.691406 3.960938,-0.394531 3.640625,-0.1875 3.316406,0.0078125 2.972656,0.109375 2.609375,0.109375 2.347656,0.109375 2.113281,0.0507812 1.90625,-0.0625 1.695312,-0.175781 1.523438,-0.316406 1.390625,-0.484375 V 1.78125 Z M 1.3125,-2.3125 c 0,0.605469 0.117188,1.054688 0.359375,1.34375 0.25,0.28125 0.546875,0.421875 0.890625,0.421875 0.34375,0 0.640625,-0.144531 0.890625,-0.4375 C 3.710938,-1.285156 3.84375,-1.75 3.84375,-2.375 c 0,-0.59375 -0.125,-1.035156 -0.375,-1.328125 -0.242188,-0.300781 -0.53125,-0.453125 -0.875,-0.453125 -0.335938,0 -0.632812,0.164062 -0.890625,0.484375 C 1.441406,-3.359375 1.3125,-2.90625 1.3125,-2.3125 Z m 0,0"
           id="path19" />
      </symbol>
      <symbol
         overflow="visible"
         id="glyph2-9">
        <path
           style="stroke:none"
           d="m 3.65625,0 v -0.6875 c -0.367188,0.53125 -0.859375,0.796875 -1.484375,0.796875 -0.273437,0 -0.527344,-0.0546875 -0.765625,-0.15625 -0.242188,-0.113281 -0.421875,-0.25 -0.546875,-0.40625 C 0.742188,-0.609375 0.664062,-0.800781 0.625,-1.03125 0.59375,-1.1875 0.578125,-1.4375 0.578125,-1.78125 v -2.890625 h 0.78125 v 2.59375 c 0,0.417969 0.019531,0.695313 0.0625,0.828125 0.039063,0.210938 0.140625,0.375 0.296875,0.5 0.164062,0.117188 0.367188,0.171875 0.609375,0.171875 0.238281,0 0.460937,-0.054687 0.671875,-0.171875 0.207031,-0.125 0.351562,-0.289062 0.4375,-0.5 0.082031,-0.207031 0.125,-0.515625 0.125,-0.921875 v -2.5 H 4.359375 V 0 Z m 0,0"
           id="path20" />
      </symbol>
      <symbol
         overflow="visible"
         id="glyph2-10">
        <path
           style="stroke:none"
           d="m 2.328125,-0.703125 0.109375,0.6875 C 2.207031,0.0351562 2.007812,0.0625 1.84375,0.0625 1.550781,0.0625 1.328125,0.015625 1.171875,-0.078125 1.015625,-0.171875 0.898438,-0.289062 0.828125,-0.4375 0.765625,-0.582031 0.734375,-0.890625 0.734375,-1.359375 v -2.6875 H 0.15625 v -0.625 h 0.578125 v -1.15625 l 0.796875,-0.46875 v 1.625 h 0.796875 v 0.625 H 1.53125 v 2.71875 c 0,0.230469 0.00781,0.375 0.03125,0.4375 0.03125,0.0625 0.078125,0.117187 0.140625,0.15625 0.0625,0.042969 0.148437,0.0625 0.265625,0.0625 0.09375,0 0.210938,-0.007813 0.359375,-0.03125 z m 0,0"
           id="path21" />
      </symbol>
      <symbol
         overflow="visible"
         id="glyph2-11">
        <path
           style="stroke:none"
           d="M -0.015625,0 2.46875,-6.4375 H 3.375 L 6.015625,0 h -0.96875 l -0.75,-1.953125 H 1.59375 L 0.890625,0 Z M 1.84375,-2.640625 h 2.1875 L 3.359375,-4.4375 C 3.148438,-4.976562 3,-5.421875 2.90625,-5.765625 2.820312,-5.347656 2.703125,-4.9375 2.546875,-4.53125 Z m 0,0"
           id="path22" />
      </symbol>
    </g>
  </defs>
  <g
     id="surface1"
     transform="translate(-0.5391016,-6.5669861)">
    <g
       style="fill:#000000;fill-opacity:1"
       id="g53">
      <use
         xlink:href="#glyph2-6"
         x="94.428001"
         y="13.113861"
         id="use53" />
    </g>
    <path
       style="fill:#b0d9ff;fill-opacity:1;fill-rule:nonzero;stroke:none"
       d="m 35.972659,145.37891 c 4.6289,4.6289 4.6289,12.13671 0,16.76562 -4.62891,4.625 -12.13282,4.625 -16.76172,0 -4.62891,-4.62891 -4.62891,-12.13672 0,-16.76562 4.6289,-4.62891 12.13281,-4.62891 16.76172,0"
       id="path130" />
    <path
       style="fill:none;stroke:#000000;stroke-width:0.929626;stroke-linecap:round;stroke-linejoin:round;stroke-miterlimit:10;stroke-opacity:1"
       d="m 35.972659,145.37891 c 4.6289,4.6289 4.6289,12.13671 0,16.76562 -4.62891,4.62891 -12.13282,4.62891 -16.76172,0 -4.62891,-4.62891 -4.62891,-12.13672 0,-16.76562 4.6289,-4.62891 12.13281,-4.62891 16.76172,0"
       id="path131" />
    <g
       style="fill:#000000;fill-opacity:1"
       id="g131"
       transform="translate(-215.34375,1.5)">
      <use
         xlink:href="#glyph0-1"
         x="239.4373"
         y="153.76151"
         id="use131" />
    </g>
    <g
       style="fill:#000000;fill-opacity:1"
       id="g132"
       transform="translate(-215.34375,1.5)">
      <use
         xlink:href="#glyph1-1"
         x="243.4333"
         y="156.76151"
         id="use132" />
    </g>
    <path
       style="fill:#b0d9ff;fill-opacity:1;fill-rule:nonzero;stroke:none"
       d="m 85.124999,145.37891 c 4.62891,4.6289 4.62891,12.13671 0,16.76562 -4.62891,4.625 -12.13281,4.625 -16.76172,0 -4.62891,-4.62891 -4.62891,-12.13672 0,-16.76562 4.62891,-4.62891 12.13281,-4.62891 16.76172,0"
       id="path132" />
    <path
       style="fill:none;stroke:#000000;stroke-width:0.929626;stroke-linecap:round;stroke-linejoin:round;stroke-miterlimit:10;stroke-opacity:1"
       d="m 85.124999,145.37891 c 4.62891,4.6289 4.62891,12.13671 0,16.76562 -4.62891,4.62891 -12.13281,4.62891 -16.76172,0 -4.62891,-4.62891 -4.62891,-12.13672 0,-16.76562 4.62891,-4.62891 12.13281,-4.62891 16.76172,0"
       id="path133" />
    <g
       style="fill:#000000;fill-opacity:1"
       id="g133"
       transform="translate(-215.34375,1.5)">
      <use
         xlink:href="#glyph0-1"
         x="288.59131"
         y="153.76151"
         id="use133" />
    </g>
    <g
       style="fill:#000000;fill-opacity:1"
       id="g134"
       transform="translate(-215.34375,1.5)">
      <use
         xlink:href="#glyph1-2"
         x="292.58731"
         y="156.76151"
         id="use134" />
    </g>
    <path
       style="fill:#b0d9ff;fill-opacity:1;fill-rule:nonzero;stroke:none"
       d="m 134.28125,145.37891 c 4.62891,4.6289 4.62891,12.13671 0,16.76562 -4.62891,4.625 -12.13281,4.625 -16.76172,0 -4.62891,-4.62891 -4.62891,-12.13672 0,-16.76562 4.62891,-4.62891 12.13281,-4.62891 16.76172,0"
       id="path134" />
    <path
       style="fill:none;stroke:#000000;stroke-width:0.929626;stroke-linecap:round;stroke-linejoin:round;stroke-miterlimit:10;stroke-opacity:1"
       d="m 134.28125,145.37891 c 4.62891,4.6289 4.62891,12.13671 0,16.76562 -4.62891,4.62891 -12.13281,4.62891 -16.76172,0 -4.62891,-4.62891 -4.62891,-12.13672 0,-16.76562 4.62891,-4.62891 12.13281,-4.62891 16.76172,0"
       id="path135" />
    <g
       style="fill:#000000;fill-opacity:1"
       id="g135"
       transform="translate(-215.34375,1.5)">
      <use
         xlink:href="#glyph0-1"
         x="337.7453"
         y="153.76151"
         id="use135" />
    </g>
    <g
       style="fill:#000000;fill-opacity:1"
       id="g136"
       transform="translate(-215.34375,1.5)">
      <use
         xlink:href="#glyph1-3"
         x="341.7413"
         y="156.76151"
         id="use136" />
    </g>
    <path
       style="fill:#b0d9ff;fill-opacity:1;fill-rule:nonzero;stroke:none"
       d="m 183.43359,145.37891 c 4.62891,4.6289 4.62891,12.13671 0,16.76562 -4.6289,4.625 -12.13281,4.625 -16.76172,0 -4.6289,-4.62891 -4.6289,-12.13672 0,-16.76562 4.62891,-4.62891 12.13282,-4.62891 16.76172,0"
       id="path136" />
    <path
       style="fill:none;stroke:#000000;stroke-width:0.929626;stroke-linecap:round;stroke-linejoin:round;stroke-miterlimit:10;stroke-opacity:1"
       d="m 183.43359,145.37891 c 4.62891,4.6289 4.62891,12.13671 0,16.76562 -4.6289,4.62891 -12.13281,4.62891 -16.76172,0 -4.6289,-4.62891 -4.6289,-12.13672 0,-16.76562 4.62891,-4.62891 12.13282,-4.62891 16.76172,0"
       id="path137" />
    <g
       style="fill:#000000;fill-opacity:1"
       id="g137"
       transform="translate(-215.34375,1.5)">
      <use
         xlink:href="#glyph0-1"
         x="386.89929"
         y="153.76151"
         id="use137" />
    </g>
    <g
       style="fill:#000000;fill-opacity:1"
       id="g138"
       transform="translate(-215.34375,1.5)">
      <use
         xlink:href="#glyph1-4"
         x="390.89529"
         y="156.76151"
         id="use138" />
    </g>
    <path
       style="fill:#63bdff;fill-opacity:1;fill-rule:nonzero;stroke:#000000;stroke-width:0.929626;stroke-linecap:round;stroke-linejoin:round;stroke-miterlimit:10;stroke-opacity:1"
       d="m 151.48047,88.671875 c 4.6289,4.628906 4.6289,12.136715 0,16.761715 -4.62891,4.62891 -12.13672,4.62891 -16.76563,0 -4.6289,-4.625 -4.6289,-12.132809 0,-16.761715 4.62891,-4.628906 12.13672,-4.628906 16.76563,0"
       id="path138" />
    <g
       style="fill:#000000;fill-opacity:1"
       id="g139"
       transform="translate(-215.34375,1.5)">
      <use
         xlink:href="#glyph0-2"
         x="354.69141"
         y="97.054298"
         id="use139" />
    </g>
    <g
       style="fill:#000000;fill-opacity:1"
       id="g140"
       transform="translate(-215.34375,1.5)">
      <use
         xlink:href="#glyph1-4"
         x="359.19141"
         y="100.0543"
         id="use140" />
    </g>
    <path
       style="fill:#63bdff;fill-opacity:1;fill-rule:nonzero;stroke:#000000;stroke-width:0.929626;stroke-linecap:round;stroke-linejoin:round;stroke-miterlimit:10;stroke-opacity:1"
       d="m 109.06641,88.671875 c 4.625,4.628906 4.625,12.136715 0,16.761715 -4.62891,4.62891 -12.136721,4.62891 -16.765631,0 -4.62891,-4.625 -4.62891,-12.132809 0,-16.761715 4.62891,-4.628906 12.136721,-4.628906 16.765631,0"
       id="path140" />
    <g
       style="fill:#000000;fill-opacity:1"
       id="g141"
       transform="translate(-215.34375,1.5)">
      <use
         xlink:href="#glyph0-2"
         x="312.27719"
         y="97.054298"
         id="use141" />
    </g>
    <g
       style="fill:#000000;fill-opacity:1"
       id="g142"
       transform="translate(-215.34375,1.5)">
      <use
         xlink:href="#glyph1-3"
         x="316.77719"
         y="100.0543"
         id="use142" />
    </g>
    <path
       style="fill:#b0d9ff;fill-opacity:1;fill-rule:nonzero;stroke:#000000;stroke-width:0.929626;stroke-linecap:round;stroke-linejoin:round;stroke-miterlimit:10;stroke-opacity:1"
       d="m 59.910159,31.96484 c 4.6289,4.62891 4.6289,12.13282 0,16.76172 -4.62891,4.62891 -12.13282,4.62891 -16.76172,0 -4.62891,-4.6289 -4.62891,-12.13281 0,-16.76172 4.6289,-4.6289 12.13281,-4.6289 16.76172,0"
       id="path142" />
    <g
       style="fill:#000000;fill-opacity:1"
       id="g143"
       transform="translate(-215.34375,1.5)">
      <use
         xlink:href="#glyph0-3"
         x="263.1232"
         y="40.347092"
         id="use143" />
    </g>
    <g
       style="fill:#000000;fill-opacity:1"
       id="g144"
       transform="translate(-215.34375,1.5)">
      <use
         xlink:href="#glyph1-1"
         x="267.6232"
         y="43.347092"
         id="use144" />
    </g>
    <path
       style="fill:#b0d9ff;fill-opacity:1;fill-rule:nonzero;stroke:#000000;stroke-width:0.929626;stroke-linecap:round;stroke-linejoin:round;stroke-miterlimit:10;stroke-opacity:1"
       d="m 109.06641,31.96484 c 4.625,4.62891 4.625,12.13282 0,16.76172 -4.62891,4.62891 -12.136721,4.62891 -16.765631,0 -4.62891,-4.6289 -4.62891,-12.13281 0,-16.76172 4.62891,-4.6289 12.136721,-4.6289 16.765631,0"
       id="path144" />
    <g
       style="fill:#000000;fill-opacity:1"
       id="g145"
       transform="translate(-215.34375,1.5)">
      <use
         xlink:href="#glyph0-3"
         x="312.27719"
         y="40.347092"
         id="use145" />
    </g>
    <g
       style="fill:#000000;fill-opacity:1"
       id="g146"
       transform="translate(-215.34375,1.5)">
      <use
         xlink:href="#glyph1-2"
         x="316.77719"
         y="43.347092"
         id="use146" />
    </g>
    <path
       style="fill:#b0d9ff;fill-opacity:1;fill-rule:nonzero;stroke:#000000;stroke-width:0.929626;stroke-linecap:round;stroke-linejoin:round;stroke-miterlimit:10;stroke-opacity:1"
       d="m 158.21875,31.96484 c 4.62891,4.62891 4.62891,12.13282 0,16.76172 -4.62891,4.62891 -12.13281,4.62891 -16.76172,0 -4.62891,-4.6289 -4.62891,-12.13281 0,-16.76172 4.62891,-4.6289 12.13281,-4.6289 16.76172,0"
       id="path146" />
    <g
       style="fill:#000000;fill-opacity:1"
       id="g147"
       transform="translate(-215.34375,1.5)">
      <use
         xlink:href="#glyph0-3"
         x="361.43109"
         y="40.347092"
         id="use147" />
    </g>
    <g
       style="fill:#000000;fill-opacity:1"
       id="g148"
       transform="translate(-215.34375,1.5)">
      <use
         xlink:href="#glyph1-3"
         x="365.93109"
         y="43.347092"
         id="use148" />
    </g>
    <path
       style="fill:#63bdff;fill-opacity:1;fill-rule:nonzero;stroke:#000000;stroke-width:0.929626;stroke-linecap:round;stroke-linejoin:round;stroke-miterlimit:10;stroke-opacity:1"
       d="m 24.234369,89.371094 c 4.62891,4.628906 4.62891,12.132816 0,16.761716 -4.6289,4.62891 -12.13281,4.62891 -16.7617101,0 -4.62891,-4.6289 -4.62891,-12.13281 0,-16.761716 4.6289001,-4.628906 12.1328101,-4.628906 16.7617101,0"
       id="path148" />
    <g
       style="fill:#000000;fill-opacity:1"
       id="g149"
       transform="translate(-215.34375,1.5)">
      <use
         xlink:href="#glyph0-2"
         x="227.4487"
         y="97.751518"
         id="use149" />
    </g>
    <g
       style="fill:#000000;fill-opacity:1"
       id="g150"
       transform="translate(-215.34375,1.5)">
      <use
         xlink:href="#glyph1-1"
         x="231.9487"
         y="100.75152"
         id="use150" />
    </g>
    <path
       style="fill:none;stroke:#000000;stroke-width:0.929626;stroke-linecap:round;stroke-linejoin:round;stroke-miterlimit:10;stroke-opacity:1"
       d="M 22.113279,87.683594 42.359369,55.10547"
       id="path150" />
    <path
       style="fill:none;stroke:#000000;stroke-width:0.929626;stroke-linecap:butt;stroke-linejoin:miter;stroke-miterlimit:10;stroke-opacity:1"
       d="m 44.320309,51.94531 -1.96094,3.16016 m -1.1875,-0.73828 3.14844,-2.42188 -0.77734,3.89453"
       id="path151" />
    <path
       style="fill:none;stroke:#000000;stroke-width:0.929626;stroke-linecap:round;stroke-linejoin:round;stroke-miterlimit:10;stroke-opacity:1"
       d="M 25.671869,91.109375 86.292969,50.08594"
       id="path152" />
    <path
       style="fill:none;stroke:#000000;stroke-width:0.929626;stroke-linecap:butt;stroke-linejoin:miter;stroke-miterlimit:10;stroke-opacity:1"
       d="m 89.374999,48 -3.08203,2.08594 M 85.511719,48.92969 89.374999,48 l -2.30078,3.23828"
       id="path153" />
    <path
       style="fill:none;stroke:#000000;stroke-width:0.929626;stroke-linecap:round;stroke-linejoin:round;stroke-miterlimit:10;stroke-opacity:1"
       d="M 26.753909,93.082031 133.86719,47.19141"
       id="path154" />
    <path
       style="fill:none;stroke:#000000;stroke-width:0.929626;stroke-linecap:butt;stroke-linejoin:miter;stroke-miterlimit:10;stroke-opacity:1"
       d="m 137.28516,45.72656 -3.41797,1.46485 m -0.55078,-1.28125 3.96875,-0.1836 -2.8711,2.7461"
       id="path155" />
    <path
       style="fill:none;stroke:#000000;stroke-width:0.929626;stroke-linecap:round;stroke-linejoin:round;stroke-miterlimit:10;stroke-opacity:1"
       d="M 92.917969,88.097656 62.910159,53.47656"
       id="path156" />
    <path
       style="fill:none;stroke:#000000;stroke-width:0.929626;stroke-linecap:butt;stroke-linejoin:miter;stroke-miterlimit:10;stroke-opacity:1"
       d="m 60.472659,50.66406 2.4375,2.8125 m -1.05469,0.91016 -1.38281,-3.72266 3.48828,1.89844"
       id="path157" />
    <path
       style="fill:none;stroke:#000000;stroke-width:0.929626;stroke-linecap:round;stroke-linejoin:round;stroke-miterlimit:10;stroke-opacity:1"
       d="M 100.68359,85.203125 V 57.71875"
       id="path158" />
    <path
       style="fill:none;stroke:#000000;stroke-width:0.929626;stroke-linecap:butt;stroke-linejoin:miter;stroke-miterlimit:10;stroke-opacity:1"
       d="m 100.68359,54 v 3.71875 m -1.39453,0 1.39453,-3.71875 1.39453,3.71875"
       id="path159" />
    <path
       style="fill:none;stroke:#000000;stroke-width:0.929626;stroke-linecap:round;stroke-linejoin:round;stroke-miterlimit:10;stroke-opacity:1"
       d="M 108.44531,88.097656 138.45703,53.47656"
       id="path160" />
    <path
       style="fill:none;stroke:#000000;stroke-width:0.929626;stroke-linecap:butt;stroke-linejoin:miter;stroke-miterlimit:10;stroke-opacity:1"
       d="m 140.89453,50.66406 -2.4375,2.8125 m -1.05078,-0.91406 3.48828,-1.89844 -1.38281,3.72266"
       id="path161" />
    <path
       style="fill:none;stroke:#000000;stroke-width:0.929626;stroke-linecap:round;stroke-linejoin:round;stroke-miterlimit:10;stroke-opacity:1"
       d="M 133.01953,90.8125 66.300779,49.49609"
       id="path162" />
    <path
       style="fill:none;stroke:#000000;stroke-width:0.929626;stroke-linecap:butt;stroke-linejoin:miter;stroke-miterlimit:10;stroke-opacity:1"
       d="m 63.140619,47.53906 3.16016,1.95703 m -0.73437,1.1836 -2.42579,-3.14063 3.89454,0.76953"
       id="path163" />
    <path
       style="fill:none;stroke:#000000;stroke-width:0.929626;stroke-linecap:round;stroke-linejoin:round;stroke-miterlimit:10;stroke-opacity:1"
       d="M 135.99609,87.5625 111.08984,54.26172"
       id="path164" />
    <path
       style="fill:none;stroke:#000000;stroke-width:0.929626;stroke-linecap:butt;stroke-linejoin:miter;stroke-miterlimit:10;stroke-opacity:1"
       d="m 108.86328,51.28125 2.22656,2.98047 m -1.11718,0.83203 -1.10938,-3.8125 3.34375,2.14453"
       id="path165" />
    <path
       style="fill:none;stroke:#000000;stroke-width:0.929626;stroke-linecap:round;stroke-linejoin:round;stroke-miterlimit:10;stroke-opacity:1"
       d="M 144.49609,85.285156 147.78516,57.59766"
       id="path166" />
    <path
       style="fill:none;stroke:#000000;stroke-width:0.929626;stroke-linecap:butt;stroke-linejoin:miter;stroke-miterlimit:10;stroke-opacity:1"
       d="m 148.22656,53.90625 -0.4414,3.69141 m -1.38282,-0.16407 1.82422,-3.52734 0.94531,3.85547"
       id="path167" />
    <path
       style="fill:none;stroke:#000000;stroke-width:0.929626;stroke-linecap:round;stroke-linejoin:round;stroke-miterlimit:10;stroke-opacity:1"
       d="m 25.160159,142.16016 -5.74219,-27.40235"
       id="path168" />
    <path
       style="fill:none;stroke:#000000;stroke-width:0.929626;stroke-linecap:butt;stroke-linejoin:miter;stroke-miterlimit:10;stroke-opacity:1"
       d="m 18.656249,111.11719 0.76172,3.64062 m -1.36328,0.28516 0.60156,-3.92578 2.125,3.35156"
       id="path169" />
    <path
       style="fill:none;stroke:#000000;stroke-width:0.929626;stroke-linecap:round;stroke-linejoin:round;stroke-miterlimit:10;stroke-opacity:1"
       d="m 36.957029,146.49609 50,-38.79296"
       id="path170" />
    <path
       style="fill:none;stroke:#000000;stroke-width:0.929626;stroke-linecap:butt;stroke-linejoin:miter;stroke-miterlimit:10;stroke-opacity:1"
       d="m 89.894529,105.42578 -2.9375,2.27735 m -0.85547,-1.10157 3.79297,-1.17578 -2.08203,3.37891"
       id="path171" />
    <path
       style="fill:none;stroke:#000000;stroke-width:0.929626;stroke-linecap:round;stroke-linejoin:round;stroke-miterlimit:10;stroke-opacity:1"
       d="M 38.234369,148.53516 127.5,104.71094"
       id="path172" />
    <path
       style="fill:none;stroke:#000000;stroke-width:0.929626;stroke-linecap:butt;stroke-linejoin:miter;stroke-miterlimit:10;stroke-opacity:1"
       d="M 130.83984,103.07422 127.5,104.71094 m -0.61328,-1.25 3.95312,-0.38672 -2.72656,2.89062"
       id="path173" />
    <path
       style="fill:none;stroke:#000000;stroke-width:0.929626;stroke-linecap:round;stroke-linejoin:round;stroke-miterlimit:10;stroke-opacity:1"
       d="M 68.023439,145.73828 28.640619,109.51172"
       id="path174" />
    <path
       style="fill:none;stroke:#000000;stroke-width:0.929626;stroke-linecap:butt;stroke-linejoin:miter;stroke-miterlimit:10;stroke-opacity:1"
       d="m 25.906249,106.99609 2.73437,2.51563 m -0.94531,1.02734 -1.78906,-3.54297 3.67969,1.49219"
       id="path175" />
    <path
       style="fill:none;stroke:#000000;stroke-width:0.929626;stroke-linecap:round;stroke-linejoin:round;stroke-miterlimit:10;stroke-opacity:1"
       d="M 81.355469,142.83984 93.925779,113.0625"
       id="path176" />
    <path
       style="fill:none;stroke:#000000;stroke-width:0.929626;stroke-linecap:butt;stroke-linejoin:miter;stroke-miterlimit:10;stroke-opacity:1"
       d="m 95.371089,109.63672 -1.44531,3.42578 m -1.28516,-0.54297 2.73047,-2.88281 -0.16015,3.96875"
       id="path177" />
    <path
       style="fill:none;stroke:#000000;stroke-width:0.929626;stroke-linecap:round;stroke-linejoin:round;stroke-miterlimit:10;stroke-opacity:1"
       d="M 85.757809,146.05859 129.89062,108.33984"
       id="path178" />
    <path
       style="fill:none;stroke:#000000;stroke-width:0.929626;stroke-linecap:butt;stroke-linejoin:miter;stroke-miterlimit:10;stroke-opacity:1"
       d="m 132.71875,105.92578 -2.82813,2.41406 m -0.90625,-1.05859 3.73438,-1.35547 -1.92188,3.47656"
       id="path179" />
    <path
       style="fill:none;stroke:#000000;stroke-width:0.929626;stroke-linecap:round;stroke-linejoin:round;stroke-miterlimit:10;stroke-opacity:1"
       d="m 115.33203,148.38281 -83.992191,-42.75"
       id="path180" />
    <path
       style="fill:none;stroke:#000000;stroke-width:0.929626;stroke-linecap:butt;stroke-linejoin:miter;stroke-miterlimit:10;stroke-opacity:1"
       d="m 28.027339,103.94531 3.3125,1.6875 m -0.63281,1.24219 -2.67969,-2.92969 3.94532,0.44532"
       id="path181" />
    <path
       style="fill:none;stroke:#000000;stroke-width:0.929626;stroke-linecap:round;stroke-linejoin:round;stroke-miterlimit:10;stroke-opacity:1"
       d="m 121.08203,142.92969 -13.33984,-30"
       id="path182" />
    <path
       style="fill:none;stroke:#000000;stroke-width:0.929626;stroke-linecap:butt;stroke-linejoin:miter;stroke-miterlimit:10;stroke-opacity:1"
       d="m 106.23437,109.53516 1.50782,3.39453 m -1.27344,0.5664 -0.23438,-3.96093 2.78125,2.82812"
       id="path183" />
    <path
       style="fill:none;stroke:#000000;stroke-width:0.929626;stroke-linecap:round;stroke-linejoin:round;stroke-miterlimit:10;stroke-opacity:1"
       d="m 129.33984,142.41797 8.71485,-28.73828"
       id="path184" />
    <path
       style="fill:none;stroke:#000000;stroke-width:0.929626;stroke-linecap:butt;stroke-linejoin:miter;stroke-miterlimit:10;stroke-opacity:1"
       d="m 139.13281,110.12109 -1.07812,3.5586 m -1.33594,-0.40235 2.41406,-3.15625 0.25781,3.96485"
       id="path185" />
    <path
       style="fill:none;stroke:#000000;stroke-width:0.929626;stroke-linecap:round;stroke-linejoin:round;stroke-miterlimit:10;stroke-opacity:1"
       d="M 163.87109,149.82812 32.246089,103.51953"
       id="path186" />
    <path
       style="fill:none;stroke:#000000;stroke-width:0.929626;stroke-linecap:butt;stroke-linejoin:miter;stroke-miterlimit:10;stroke-opacity:1"
       d="m 28.738279,102.28516 3.50781,1.23437 m -0.46484,1.3125 -3.04297,-2.54687 3.96875,-0.082"
       id="path187" />
    <path
       style="fill:none;stroke:#000000;stroke-width:0.929626;stroke-linecap:round;stroke-linejoin:round;stroke-miterlimit:10;stroke-opacity:1"
       d="M 165.62891,146.57422 114.5,107.58984"
       id="path188" />
    <path
       style="fill:none;stroke:#000000;stroke-width:0.929626;stroke-linecap:butt;stroke-linejoin:miter;stroke-miterlimit:10;stroke-opacity:1"
       d="m 111.54297,105.33594 2.95703,2.2539 m -0.84766,1.10938 -2.10937,-3.36328 3.80078,1.14453"
       id="path189" />
    <path
       style="fill:none;stroke:#000000;stroke-width:0.929626;stroke-linecap:round;stroke-linejoin:round;stroke-miterlimit:10;stroke-opacity:1"
       d="M 169.23437,143.43359 151.62891,112.19141"
       id="path190" />
    <path
       style="fill:none;stroke:#000000;stroke-width:0.929626;stroke-linecap:butt;stroke-linejoin:miter;stroke-miterlimit:10;stroke-opacity:1"
       d="m 149.80078,108.95313 1.82813,3.23828 m -1.21485,0.68359 -0.61328,-3.92187 3.04297,2.55468"
       id="path191" />
    <g
       style="fill:#000000;fill-opacity:1"
       id="g192"
       transform="translate(-215.34375,1.5)">
      <use
         xlink:href="#glyph2-11"
         x="290.01151"
         y="13.113861"
         id="use191" />
      <use
         xlink:href="#glyph2-3"
         x="296.0145"
         y="13.113861"
         id="use192" />
    </g>
    <g
       style="fill:#000000;fill-opacity:1"
       id="g193"
       transform="translate(-215.34375,1.5)">
      <use
         xlink:href="#glyph2-10"
         x="298.51471"
         y="13.113861"
         id="use193" />
    </g>
    <g
       style="fill:#000000;fill-opacity:1"
       id="g194"
       transform="translate(-215.34375,1.5)">
      <use
         xlink:href="#glyph2-2"
         x="301.01489"
         y="13.113861"
         id="use194" />
    </g>
    <g
       style="fill:#000000;fill-opacity:1"
       id="g196"
       transform="translate(-215.34375,1.5)">
      <use
         xlink:href="#glyph2-5"
         x="306.02069"
         y="13.113861"
         id="use195" />
      <use
         xlink:href="#glyph2-6"
         x="309.0177"
         y="13.113861"
         id="use196" />
    </g>
    <g
       style="fill:#000000;fill-opacity:1"
       id="g197"
       transform="translate(-215.34375,1.5)">
      <use
         xlink:href="#glyph2-7"
         x="311.51791"
         y="13.113861"
         id="use197" />
    </g>
    <g
       style="fill:#000000;fill-opacity:1"
       id="g199"
       transform="translate(-215.34375,1.5)">
      <use
         xlink:href="#glyph2-5"
         x="316.52371"
         y="13.113861"
         id="use198" />
      <use
         xlink:href="#glyph2-4"
         x="319.52069"
         y="13.113861"
         id="use199" />
    </g>
    <g
       style="fill:#000000;fill-opacity:1"
       id="g200"
       transform="translate(-215.34375,1.5)">
      <use
         xlink:href="#glyph2-8"
         x="324.52649"
         y="13.113861"
         id="use200" />
    </g>
    <g
       style="fill:#000000;fill-opacity:1"
       id="g201"
       transform="translate(-215.34375,1.5)">
      <use
         xlink:href="#glyph2-4"
         x="329.53229"
         y="13.113861"
         id="use201" />
    </g>
    <g
       style="fill:#000000;fill-opacity:1"
       id="g202"
       transform="translate(-215.34375,1.5)">
      <use
         xlink:href="#glyph2-9"
         x="334.53809"
         y="13.113861"
         id="use202" />
    </g>
    <g
       style="fill:#000000;fill-opacity:1"
       id="g203"
       transform="translate(-215.34375,1.5)">
      <use
         xlink:href="#glyph2-10"
         x="339.54391"
         y="13.113861"
         id="use203" />
    </g>
  </g>
</svg>
